<svg width="35" height="20" viewBox="0 0 35 20" fill="none" xmlns="http://www.w3.org/2000/svg">
<path d="M14.1528 4.6783C15.0453 5.57193 16.4881 5.60716 17.4236 4.75815L20.6707 1.81146C21.5806 0.985766 22.9761 0.993364 23.8768 1.82891L34.2493 11.4511C35.2324 12.3631 35.2527 13.9055 34.2938 14.8427L34.1957 14.9385C33.2641 15.8491 31.7658 15.8354 30.8511 14.9081L23.4991 7.45464C22.6411 6.58486 21.2565 6.51123 20.3101 7.28506L17.1847 9.84045C16.2729 10.586 14.9474 10.5483 14.08 9.75215L9.90683 5.92203C9.0661 5.15041 7.78989 5.08834 6.87738 5.77469L4.12351 7.84601C3.21294 8.53089 1.91614 8.35241 1.2271 7.44738C0.538148 6.54246 0.71772 5.25381 1.6282 4.56904L7.07044 0.475865C8.014 -0.233797 9.34023 -0.140514 10.1738 0.69415L14.1528 4.6783Z" fill="#106278"/>
<path d="M13.8008 13.7466C14.6682 14.5427 15.9937 14.5804 16.9055 13.8349L20.1533 11.1793C21.0912 10.4124 22.4614 10.477 23.3221 11.3287L30.0572 17.9933C30.5197 18.451 30.5213 19.1946 30.0608 19.6543C29.6003 20.1138 28.8522 20.1154 28.3897 19.6578L23.1709 14.4939C22.3101 13.6422 20.9398 13.5777 20.0019 14.3447L16.8166 16.9497C15.9048 17.6954 14.5791 17.6578 13.7116 16.8616L9.56141 13.0523C8.72068 12.2807 7.44442 12.2186 6.53189 12.905L2.66069 15.8168C2.01317 16.3039 1.1061 16.2536 0.517101 15.698C-0.279734 14.9463 -0.134821 13.6464 0.808249 13.0864L6.7425 9.56213C7.64204 9.02791 8.78814 9.14622 9.55801 9.85278L13.8008 13.7466Z" fill="#106278"/>
</svg>
